<?xml version="1.0" encoding="UTF-8" standalone="no"?>
<!-- Created with Inkscape (http://www.inkscape.org/) -->

<svg
   width="512"
   height="512"
   viewBox="0 0 512 512"
   version="1.1"
   id="svg1"
   xml:space="preserve"
   inkscape:version="1.4.2 (ebf0e940d0, 2025-05-08)"
   sodipodi:docname="logo.svg"
   inkscape:export-filename="logo-16.png"
   inkscape:export-xdpi="3"
   inkscape:export-ydpi="3"
   xmlns:inkscape="http://www.inkscape.org/namespaces/inkscape"
   xmlns:sodipodi="http://sodipodi.sourceforge.net/DTD/sodipodi-0.dtd"
   xmlns:xlink="http://www.w3.org/1999/xlink"
   xmlns="http://www.w3.org/2000/svg"
   xmlns:svg="http://www.w3.org/2000/svg"><sodipodi:namedview
     id="namedview1"
     pagecolor="#ffffff"
     bordercolor="#000000"
     borderopacity="0.25"
     inkscape:showpageshadow="2"
     inkscape:pageopacity="0.0"
     inkscape:pagecheckerboard="0"
     inkscape:deskcolor="#d1d1d1"
     inkscape:document-units="px"
     inkscape:zoom="0.39774756"
     inkscape:cx="487.74655"
     inkscape:cy="150.84945"
     inkscape:window-width="1535"
     inkscape:window-height="830"
     inkscape:window-x="0"
     inkscape:window-y="0"
     inkscape:window-maximized="1"
     inkscape:current-layer="layer1" /><defs
     id="defs1"><linearGradient
       id="linearGradient4"
       inkscape:collect="always"><stop
         style="stop-color:#0a45aa;stop-opacity:1;"
         offset="0"
         id="stop4" /><stop
         style="stop-color:#5290f1;stop-opacity:1;"
         offset="1"
         id="stop5" /></linearGradient><linearGradient
       inkscape:collect="always"
       xlink:href="#linearGradient4"
       id="linearGradient5"
       x1="118.13814"
       y1="358.96271"
       x2="446.6319"
       y2="39.782459"
       gradientUnits="userSpaceOnUse" /></defs><g
     inkscape:label="Layer 1"
     inkscape:groupmode="layer"
     id="layer1"><rect
       style="fill:url(#linearGradient5);fill-opacity:1;stroke:none;stroke-opacity:1"
       id="rect1"
       width="512"
       height="512"
       x="0"
       y="0"
       ry="96.795059" /><g
       style="fill:none;fill-opacity:1;stroke:#ffffff;stroke-opacity:1"
       id="g1"
       transform="matrix(16.252894,0,0,16.252894,56.25597,57.548292)"><path
         d="m 16,5 2.2929,-2.29289 c 0.3905,-0.39053 1.0237,-0.39053 1.4142,0 l 1.5858,1.58578 c 0.3905,0.39053 0.3905,1.02369 0,1.41422 L 19,8 M 16,5 10.2929,10.7071 C 10.1054,10.8946 10,11.149 10,11.4142 V 13 c 0,0.5523 0.4477,1 1,1 h 1.5858 c 0.2652,0 0.5196,-0.1054 0.7071,-0.2929 L 19,8 m -3,-3 3,3"
         stroke="#000000"
         stroke-linecap="round"
         stroke-linejoin="round"
         stroke-width="2"
         id="path1"
         style="fill:none;fill-opacity:1;stroke:#ffffff;stroke-opacity:1" /><path
         d="M 6,14 H 5 c -1.10457,0 -2,0.8954 -2,2 v 0 c 0,1.1046 0.89543,2 2,2 h 14 c 1.1046,0 2,0.8954 2,2 v 0 c 0,1.1046 -0.8954,2 -2,2 h -4"
         stroke="#000000"
         stroke-linecap="round"
         stroke-linejoin="round"
         stroke-width="2"
         id="path2"
         style="fill:none;fill-opacity:1;stroke:#ffffff;stroke-opacity:1" /></g></g></svg>
